#!OML:ASF F:\VICON\USERDATA\INSTALL\rory3\rory3.ASF
:FULLY-SPECIFIED
:DEGREES
694
root 0.0283049 18.0474 -3.89818 -1.36941 43.1116 -2.34964
lowerback 6.62495 12.4624 5.21298
upperback -1.00613 16.9638 -2.4006
thorax -2.45237 8.38426 -6.39769
lowerneck -10.5441 -0.309707 -5.15115
upperneck 14.2247 -0.0897186 3.93098
head 6.04545 0.0169919 2.09062
rclavicle -2.36057e-014 5.96354e-015
rhumerus -0.50404 26.8385 -56.1514
rradius 112.368
rwrist 29.4556
rhand -32.8053 17.2269
rfingers 7.12502
rthumb -6.02625 -12.6673
lclavicle -2.36057e-014 5.96354e-015
lhumerus -37.5181 8.39552 33.0573
lradius 100.012
lwrist -9.26625
lhand -33.6065 10.3523
lfingers 7.12502
lthumb -6.79973 40.2231
rfemur 11.8079 4.29719 21.5071
rtibia 17.3439
rfoot -44.312 -39.0743
rtoes 10.392
lfemur -26.0293 -24.5809 -1.09836
ltibia 29.2552
lfoot -7.0522 -13.1627
ltoes -12.5179
695
root 0.0301289 18.0478 -3.89444 -1.41658 43.0501 -2.39198
lowerback 6.61191 12.4915 5.23207
upperback -1.01078 17.0041 -2.3775
thorax -2.44639 8.40412 -6.38176
lowerneck -10.7514 -0.310285 -5.2162
upperneck 14.3396 -0.0828463 4.00427
head 6.11703 0.0236098 2.12736
rclavicle -7.11401e-014 -8.74653e-015
rhumerus -0.380077 27.227 -56.2016
rradius 112.459
rwrist 29.3471
rhand -32.9939 17.343
rfingers 7.12502
rthumb -6.20831 -12.546
lclavicle -7.11401e-014 -8.74653e-015
lhumerus -37.9204 8.60726 32.9831
lradius 100.218
lwrist -8.02405
lhand -33.8347 10.9548
lfingers 7.12502
lthumb -7.01996 40.8184
rfemur 11.8282 4.39075 21.5604
rtibia 17.354
rfoot -44.2287 -39.1597
rtoes 10.4395
lfemur -25.9762 -24.4818 -1.09446
ltibia 29.2709
lfoot -7.11638 -13.199
ltoes -12.7328
696
root 0.0331222 18.0493 -3.89291 -1.27378 43.0409 -2.21311
lowerback 6.55233 12.496 5.11736
upperback -1.0044 16.9975 -2.40297
thorax -2.43249 8.40355 -6.3379
lowerneck -10.941 -0.30286 -5.51326
upperneck 14.4184 -0.0675095 4.3446
head 6.17325 0.0428618 2.28827
rclavicle -9.17143e-014 1.35174e-014
rhumerus -0.263042 27.6141 -56.2619
rradius 112.506
rwrist 29.0515
rhand -33.3292 17.5643
rfingers 7.12502
rthumb -6.53198 -12.315
lclavicle -9.17143e-014 1.35174e-014
lhumerus -38.2622 8.85694 32.8196
lradius 100.29
lwrist -7.39793
lhand -33.7518 10.853
lfingers 7.12502
lthumb -6.94003 40.7192
rfemur 11.8207 4.38742 21.3988
rtibia 17.3501
rfoot -44.1759 -39.1756
rtoes 10.4343
lfemur -25.9912 -24.386 -1.26146
ltibia 29.3163
lfoot -7.06071 -13.2902
ltoes -12.3086
697
root 0.035538 18.0492 -3.89162 -1.25444 43.017 -2.22038
lowerback 6.47855 12.4913 5.14384
upperback -0.999514 16.9904 -2.38975
thorax -2.38486 8.40198 -6.3177
lowerneck -11.0555 -0.294397 -5.70615
upperneck 14.4201 -0.0494517 4.54622
head 6.19213 0.057718 2.38681
rclavicle -2.00822e-013 1.47101e-014
rhumerus -0.180894 27.9323 -56.2922
rradius 112.601
rwrist 28.8575
rhand -33.5264 17.5363
rfingers 7.12502
rthumb -6.72244 -12.3369
lclavicle -2.00822e-013 1.47101e-014
lhumerus -38.5763 9.04247 32.6944
lradius 100.335
lwrist -6.9183
lhand -33.8746 10.7057
lfingers 7.12502
lthumb -7.05849 40.568
rfemur 11.8087 4.44581 21.4068
rtibia 17.3434
rfoot -44.2601 -39.1399
rtoes 10.4236
lfemur -26.0407 -24.1198 -1.30466
ltibia 29.4293
lfoot -7.04381 -13.5194
ltoes -12.3228
698
root 0.0390959 18.0449 -3.89138 -1.40995 42.9823 -2.51141
lowerback 6.38613 12.4849 5.41836
upperback -1.02425 17.0007 -2.33889
thorax -2.29796 8.40677 -6.37428
lowerneck -10.9504 -0.292867 -5.59032
upperneck 14.2544 -0.0453907 4.37768
head 6.12177 0.0516725 2.31145
rclavicle -7.06183e-014 0
rhumerus -0.232362 28.1205 -56.3225
rradius 112.78
rwrist 29.0257
rhand -33.4177 17.5012
rfingers 7.12502
rthumb -6.61746 -12.3754
lclavicle -7.06183e-014 0
lhumerus -38.7632 9.13661 32.6312
lradius 100.257
lwrist -6.58552
lhand -34.1682 10.5212
lfingers 7.12502
lthumb -7.34195 40.3738
rfemur 11.748 4.40956 21.6099
rtibia 17.3926
rfoot -44.2117 -39.0648
rtoes 10.4479
lfemur -26.1328 -23.8544 -1.09635
ltibia 29.5706
lfoot -7.08988 -13.7461
ltoes -12.646
699
root 0.0430855 18.0391 -3.89212 -1.49473 42.9297 -2.71659
lowerback 6.29286 12.4684 5.66649
upperback -1.04885 16.9942 -2.33129
thorax -2.20697 8.40421 -6.46037
lowerneck -10.7806 -0.317415 -5.32934
upperneck 13.9997 -0.0827141 4.06796
head 6.01465 0.0218868 2.16264
rclavicle -4.55962e-014 1.15295e-014
rhumerus -0.281192 28.1929 -56.3928
rradius 112.945
rwrist 29.2854
rhand -32.941 17.4824
rfingers 7.12502
rthumb -6.15721 -12.4082
lclavicle -4.55962e-014 1.15295e-014
lhumerus -38.8825 9.20936 32.5761
lradius 100.119
lwrist -6.45006
lhand -34.5621 10.0688
lfingers 7.12502
lthumb -7.72217 39.9078
rfemur 11.6865 4.29056 21.6966
rtibia 17.4195
rfoot -44.087 -38.8521
rtoes 10.6786
lfemur -26.2515 -23.6786 -0.934265
ltibia 29.7525
lfoot -7.17035 -13.782
ltoes -12.8206
700
root 0.0440453 18.037 -3.8958 -1.44115 42.7861 -2.7176
lowerback 6.23488 12.4511 5.73576
upperback -1.0579 16.9736 -2.33663
thorax -2.1669 8.39492 -6.48399
lowerneck -10.7186 -0.352275 -5.22889
upperneck 13.852 -0.123165 3.89277
head 5.95975 -0.00667719 2.08509
rclavicle 1.69464e-014 1.59028e-014
rhumerus -0.251791 28.3608 -56.4
rradius 113.013
rwrist 29.05
rhand -32.8017 17.5491
rfingers 7.12502
rthumb -6.02272 -12.3453
lclavicle 1.69464e-014 1.59028e-014
lhumerus -39.0863 9.25791 32.6174
lradius 100.118
lwrist -6.44724
lhand -34.8504 10.0979
lfingers 7.12502
lthumb -8.00035 39.9265
rfemur 11.5768 4.29473 21.6315
rtibia 17.472
rfoot -43.9107 -38.7333
rtoes 10.8207
lfemur -26.3561 -23.4122 -0.956815
ltibia 29.944
lfoot -7.25368 -13.8035
ltoes -13.0046
701
root 0.0447464 18.0354 -3.89902 -1.50436 42.6385 -2.85541
lowerback 6.13215 12.4096 5.83076
upperback -1.03836 16.921 -2.25974
thorax -2.09503 8.37068 -6.42446
lowerneck -10.7594 -0.361228 -5.25166
upperneck 13.8066 -0.117259 3.80824
head 5.9524 -0.0115694 2.06203
rclavicle -6.92019e-014 -1.98785e-015
rhumerus -0.165972 28.6542 -56.2925
rradius 112.985
rwrist 28.5597
rhand -33.139 17.7901
rfingers 7.12502
rthumb -6.34838 -12.0948
lclavicle -6.92019e-014 -1.98785e-015
lhumerus -39.3574 9.29142 32.7925
lradius 100.219
lwrist -6.55776
lhand -34.9518 10.4145
lfingers 7.12502
lthumb -8.09821 40.2394
rfemur 11.4862 4.37448 21.7051
rtibia 17.5274
rfoot -43.8721 -38.6412
rtoes 10.8982
lfemur -26.4325 -23.1062 -0.881828
ltibia 30.1362
lfoot -7.26899 -13.882
ltoes -12.8917
702
root 0.0449198 18.0304 -3.90093 -1.60736 42.5028 -2.99409
lowerback 6.04976 12.3506 5.92846
upperback -1.00641 16.8457 -2.18421
thorax -2.02325 8.33546 -6.37107
lowerneck -10.7388 -0.339745 -5.32384
upperneck 13.7077 -0.0792383 3.82255
head 5.91594 0.00396603 2.08044
rclavicle -1.82509e-014 7.55382e-015
rhumerus -0.118856 28.8912 -56.1749
rradius 113.018
rwrist 28.295
rhand -33.2868 17.9172
rfingers 7.12502
rthumb -6.4911 -11.9633
lclavicle -1.82509e-014 7.55382e-015
lhumerus -39.5416 9.35432 32.9579
lradius 100.204
lwrist -6.70942
lhand -34.8235 9.79989
lfingers 7.12502
lthumb -7.97439 39.6295
rfemur 11.442 4.43885 21.7802
rtibia 17.5924
rfoot -43.8675 -38.515
rtoes 10.8308
lfemur -26.4627 -22.907 -0.800606
ltibia 30.3123
lfoot -7.30017 -13.9476
ltoes -12.8132
703
root 0.0441656 18.0236 -3.90511 -1.83122 42.3861 -3.21789
lowerback 6.10677 12.2707 6.15956
upperback -0.991678 16.7602 -2.12957
thorax -2.00383 8.29063 -6.43697
lowerneck -10.7561 -0.316582 -5.32952
upperneck 13.6639 -0.0464133 3.82249
head 5.90353 0.0195561 2.08361
rclavicle -1.82633e-015 -9.54166e-015
rhumerus -0.167692 29.0624 -56.0631
rradius 113.16
rwrist 28.1325
rhand -33.261 17.8829
rfingers 7.12502
rthumb -6.46614 -11.9984
lclavicle -1.82633e-015 -9.54166e-015
lhumerus -39.5625 9.29883 33.09
lradius 100.114
lwrist -6.82662
lhand -34.7192 8.89633
lfingers 7.12502
lthumb -7.8738 38.7297
rfemur 11.4539 4.53985 21.941
rtibia 17.6616
rfoot -43.8058 -38.4867
rtoes 10.8986
lfemur -26.4499 -22.7844 -0.662223
ltibia 30.4994
lfoot -7.30144 -14.0314
ltoes -12.4449
704
root 0.0433849 18.0181 -3.91144 -2.0225 42.2539 -3.38478
lowerback 6.19091 12.1874 6.33919
upperback -0.990179 16.6688 -2.07058
thorax -2.02988 8.24078 -6.4841
lowerneck -10.9124 -0.350501 -5.6458
upperneck 13.799 -0.0693902 4.06791
head 5.97378 0.0113861 2.21401
rclavicle -7.91908e-014 3.97569e-016
rhumerus -0.239517 29.1251 -55.8649
rradius 113.291
rwrist 28.2842
rhand -33.0634 17.937
rfingers 7.12502
rthumb -6.27547 -11.95
lclavicle -7.91908e-014 3.97569e-016
lhumerus -39.5986 9.05042 33.3008
lradius 100.158
lwrist -6.98225
lhand -34.6764 8.49589
lfingers 7.12502
lthumb -7.83247 38.3308
rfemur 11.4516 4.59751 22.0365
rtibia 17.7503
rfoot -43.6917 -38.445
rtoes 10.9413
lfemur -26.4299 -22.6905 -0.56859
ltibia 30.6915
lfoot -7.34195 -14.0604
ltoes -12.1166
